<?xml version="1.0" encoding="UTF-8"?>
<svg width="700pt" height="700pt" version="1.1" viewBox="0 0 700 700" xmlns="http://www.w3.org/2000/svg" xmlns:xlink="http://www.w3.org/1999/xlink">
 <defs>
  <symbol id="t" overflow="visible">
   <path d="m5.2969-0.3125c-0.27344 0.13672-0.55859 0.24219-0.85938 0.3125-0.29297 0.070312-0.60156 0.10938-0.92188 0.10938-0.96094 0-1.7188-0.26562-2.2812-0.79688-0.5625-0.53906-0.84375-1.2695-0.84375-2.1875 0-0.92578 0.28125-1.6562 0.84375-2.1875 0.5625-0.53906 1.3203-0.8125 2.2812-0.8125 0.32031 0 0.62891 0.039062 0.92188 0.10938 0.30078 0.074219 0.58594 0.18359 0.85938 0.32812v1.1875c-0.27344-0.1875-0.54297-0.32031-0.8125-0.40625-0.27344-0.09375-0.55469-0.14062-0.84375-0.14062-0.53125 0-0.94922 0.17188-1.25 0.51562-0.30469 0.34375-0.45312 0.8125-0.45312 1.4062s0.14844 1.0625 0.45312 1.4062c0.30078 0.33594 0.71875 0.5 1.25 0.5 0.28906 0 0.57031-0.039062 0.84375-0.125 0.26953-0.09375 0.53906-0.23438 0.8125-0.42188z"/>
  </symbol>
  <symbol id="b" overflow="visible">
   <path d="m3.875-3.1406c-0.125-0.0625-0.25-0.10156-0.375-0.125-0.11719-0.03125-0.23047-0.046875-0.34375-0.046875-0.35547 0-0.63281 0.11719-0.82812 0.34375-0.1875 0.23047-0.28125 0.55859-0.28125 0.98438v1.9844h-1.3906v-4.3281h1.3906v0.71875c0.17578-0.28125 0.37891-0.48438 0.60938-0.60938 0.22656-0.13281 0.50391-0.20312 0.82812-0.20312h0.15625c0.050781 0 0.12891 0.011719 0.23438 0.03125z"/>
  </symbol>
  <symbol id="a" overflow="visible">
   <path d="m4.9844-2.1719v0.39062h-3.2344c0.03125 0.32422 0.14453 0.57031 0.34375 0.73438 0.20703 0.15625 0.48828 0.23438 0.84375 0.23438 0.28906 0 0.58594-0.039062 0.89062-0.125 0.3125-0.082031 0.62891-0.21094 0.95312-0.39062v1.0625c-0.33594 0.125-0.66797 0.21875-1 0.28125-0.32422 0.0625-0.64844 0.09375-0.96875 0.09375-0.78125 0-1.3906-0.19531-1.8281-0.59375-0.42969-0.39453-0.64062-0.95312-0.64062-1.6719 0-0.70703 0.21094-1.2578 0.64062-1.6562 0.42578-0.40625 1.0078-0.60938 1.75-0.60938 0.67578 0 1.2188 0.20312 1.625 0.60938 0.41406 0.40625 0.625 0.95312 0.625 1.6406zm-1.4219-0.46875c0-0.25781-0.078125-0.46875-0.23438-0.625-0.15625-0.16406-0.35547-0.25-0.59375-0.25-0.27344 0-0.49219 0.078125-0.65625 0.23438-0.16797 0.14844-0.27344 0.35938-0.3125 0.64062z"/>
  </symbol>
  <symbol id="k" overflow="visible">
   <path d="m2.6094-1.9531c-0.29297 0-0.51172 0.054687-0.65625 0.15625-0.14844 0.09375-0.21875 0.24219-0.21875 0.4375 0 0.16797 0.054687 0.30469 0.17188 0.40625 0.11328 0.09375 0.27344 0.14062 0.48438 0.14062 0.25781 0 0.47656-0.085938 0.65625-0.26562 0.17578-0.1875 0.26562-0.42188 0.26562-0.70312v-0.17188zm2.1094-0.51562v2.4688h-1.4062v-0.64062c-0.17969 0.26172-0.38672 0.45312-0.625 0.57812-0.23047 0.11328-0.51172 0.17188-0.84375 0.17188-0.44922 0-0.8125-0.12891-1.0938-0.39062-0.27344-0.25781-0.40625-0.59766-0.40625-1.0156 0-0.50781 0.17188-0.87891 0.51562-1.1094 0.35156-0.23828 0.89844-0.35938 1.6406-0.35938h0.8125v-0.10938c0-0.21875-0.089844-0.37891-0.26562-0.48438-0.16797-0.10156-0.43359-0.15625-0.79688-0.15625-0.29297 0-0.57031 0.03125-0.82812 0.09375-0.25 0.0625-0.48438 0.15234-0.70312 0.26562v-1.0469c0.28906-0.070313 0.58594-0.125 0.89062-0.15625 0.30078-0.039063 0.59766-0.0625 0.89062-0.0625 0.78125 0 1.3438 0.15625 1.6875 0.46875 0.35156 0.30469 0.53125 0.79688 0.53125 1.4844z"/>
  </symbol>
  <symbol id="c" overflow="visible">
   <path d="m2.1719-5.5469v1.2188h1.4219v1h-1.4219v1.8281c0 0.19922 0.035156 0.33594 0.10938 0.40625 0.082031 0.074219 0.24219 0.10938 0.48438 0.10938h0.71875v0.98438h-1.1875c-0.55469 0-0.94531-0.11328-1.1719-0.34375-0.21875-0.22656-0.32812-0.61328-0.32812-1.1562v-1.8281h-0.6875v-1h0.6875v-1.2188z"/>
  </symbol>
  <symbol id="g" overflow="visible">
   <path d="m3.6094-3.6875v-2.3125h1.3906v6h-1.3906v-0.625c-0.19922 0.25-0.41406 0.4375-0.64062 0.5625-0.21875 0.11328-0.48047 0.17188-0.78125 0.17188-0.54297 0-0.98438-0.20703-1.3281-0.625-0.33594-0.42578-0.5-0.97266-0.5-1.6406 0-0.66406 0.16406-1.207 0.5-1.625 0.34375-0.42578 0.78516-0.64062 1.3281-0.64062 0.28906 0 0.55078 0.0625 0.78125 0.1875 0.22656 0.11719 0.44141 0.29688 0.64062 0.54688zm-0.92188 2.7969c0.30078 0 0.53125-0.10938 0.6875-0.32812s0.23438-0.53125 0.23438-0.9375c0-0.41406-0.078125-0.72656-0.23438-0.9375-0.15625-0.21875-0.38672-0.32812-0.6875-0.32812-0.29297 0-0.51562 0.10938-0.67188 0.32812-0.15625 0.21094-0.23438 0.52344-0.23438 0.9375 0 0.40625 0.078125 0.71875 0.23438 0.9375s0.37891 0.32812 0.67188 0.32812z"/>
  </symbol>
  <symbol id="j" overflow="visible">
   <path d="m2.9688-0.89062c0.28906 0 0.51562-0.10938 0.67188-0.32812s0.23438-0.53125 0.23438-0.9375c0-0.41406-0.078125-0.72656-0.23438-0.9375-0.15625-0.21875-0.38281-0.32812-0.67188-0.32812-0.30469 0-0.53125 0.10938-0.6875 0.32812s-0.23438 0.53125-0.23438 0.9375 0.078125 0.71875 0.23438 0.9375 0.38281 0.32812 0.6875 0.32812zm-0.92188-2.7969c0.1875-0.25 0.39453-0.42969 0.625-0.54688 0.23828-0.125 0.50781-0.1875 0.8125-0.1875 0.53125 0 0.96094 0.21484 1.2969 0.64062 0.34375 0.41797 0.51562 0.96094 0.51562 1.625 0 0.66797-0.17188 1.2148-0.51562 1.6406-0.33594 0.41797-0.76562 0.625-1.2969 0.625-0.30469 0-0.57422-0.058594-0.8125-0.17188-0.23047-0.125-0.4375-0.3125-0.625-0.5625v0.625h-1.3906v-6h1.3906z"/>
  </symbol>
  <symbol id="i" overflow="visible">
   <path d="m0.09375-4.3281h1.3906l1.1562 2.9375 0.98438-2.9375h1.3906l-1.8281 4.7344c-0.17969 0.47656-0.39062 0.8125-0.64062 1-0.24219 0.19531-0.55859 0.29688-0.95312 0.29688h-0.79688v-0.90625h0.42188c0.23828 0 0.41016-0.039063 0.51562-0.10938 0.10156-0.074219 0.1875-0.21094 0.25-0.40625l0.03125-0.10938z"/>
  </symbol>
  <symbol id="f" overflow="visible">
   <path d="m4.2188-1.0469h-2.3125l-0.375 1.0469h-1.5l2.1406-5.7656h1.7812l2.125 5.7656h-1.4844zm-1.9531-1.0781h1.5781l-0.78125-2.2812z"/>
  </symbol>
  <symbol id="s" overflow="visible">
   <path d="m2.6875-3.4219c-0.29297 0-0.51562 0.10938-0.67188 0.32812-0.15625 0.21094-0.23438 0.52344-0.23438 0.9375 0 0.40625 0.078125 0.71875 0.23438 0.9375s0.37891 0.32812 0.67188 0.32812c0.30078 0 0.53125-0.10938 0.6875-0.32812s0.23438-0.53125 0.23438-0.9375c0-0.41406-0.078125-0.72656-0.23438-0.9375-0.15625-0.21875-0.38672-0.32812-0.6875-0.32812zm0.92188 2.7969c-0.19922 0.25-0.41406 0.4375-0.64062 0.5625-0.21875 0.11328-0.48047 0.17188-0.78125 0.17188-0.54297 0-0.98438-0.20703-1.3281-0.625-0.33594-0.42578-0.5-0.97266-0.5-1.6406 0-0.66406 0.16406-1.207 0.5-1.625 0.34375-0.42578 0.78516-0.64062 1.3281-0.64062 0.30078 0 0.5625 0.0625 0.78125 0.1875 0.22656 0.11719 0.44141 0.29688 0.64062 0.54688v-0.64062h1.3906v5.9688h-1.3906z"/>
  </symbol>
  <symbol id="h" overflow="visible">
   <path d="m0.625-1.6875v-2.6406h1.375v0.4375 0.875 0.71875c0 0.34375 0.003906 0.59375 0.015625 0.75 0.019531 0.15625 0.054687 0.26562 0.10938 0.32812 0.050781 0.09375 0.125 0.16797 0.21875 0.21875 0.09375 0.042969 0.19531 0.0625 0.3125 0.0625 0.28906 0 0.51562-0.10938 0.67188-0.32812 0.16406-0.21875 0.25-0.52344 0.25-0.92188v-2.1406h1.3906v4.3281h-1.3906v-0.625c-0.21094 0.25-0.42969 0.4375-0.65625 0.5625-0.23047 0.11328-0.48438 0.17188-0.76562 0.17188-0.5 0-0.88281-0.14844-1.1406-0.45312-0.26172-0.3125-0.39062-0.75781-0.39062-1.3438z"/>
  </symbol>
  <symbol id="e" overflow="visible">
   <path d="m5.0156-2.6406v2.6406h-1.3906v-2.0156c0-0.375-0.011719-0.62891-0.03125-0.76562-0.011719-0.14453-0.039062-0.25-0.078125-0.3125-0.0625-0.09375-0.14062-0.16406-0.23438-0.21875-0.085938-0.050781-0.1875-0.078125-0.3125-0.078125-0.28125 0-0.50781 0.11719-0.67188 0.34375-0.16797 0.21875-0.25 0.52734-0.25 0.92188v2.125h-1.3906v-4.3281h1.3906v0.64062c0.20703-0.25 0.42578-0.42969 0.65625-0.54688 0.23828-0.125 0.5-0.1875 0.78125-0.1875 0.5 0 0.87891 0.15234 1.1406 0.45312 0.25781 0.30469 0.39062 0.74609 0.39062 1.3281z"/>
  </symbol>
  <symbol id="r" overflow="visible">
   <path d="m3.5156-6v0.90625h-0.76562c-0.19922 0-0.33984 0.039062-0.42188 0.10938-0.074219 0.0625-0.10938 0.18359-0.10938 0.35938v0.29688h1.1875v1h-1.1875v3.3281h-1.375v-3.3281h-0.6875v-1h0.6875v-0.29688c0-0.46875 0.12891-0.8125 0.39062-1.0312 0.25781-0.22656 0.66406-0.34375 1.2188-0.34375z"/>
  </symbol>
  <symbol id="d" overflow="visible">
   <path d="m2.7188-3.4375c-0.30469 0-0.53906 0.10938-0.70312 0.32812-0.15625 0.21875-0.23438 0.53906-0.23438 0.95312 0 0.41797 0.078125 0.73438 0.23438 0.95312 0.16406 0.21875 0.39844 0.32812 0.70312 0.32812 0.30078 0 0.53125-0.10938 0.6875-0.32812 0.16406-0.21875 0.25-0.53516 0.25-0.95312 0-0.41406-0.085938-0.73438-0.25-0.95312-0.15625-0.21875-0.38672-0.32812-0.6875-0.32812zm0-0.98438c0.75 0 1.332 0.20312 1.75 0.60938 0.41406 0.39844 0.625 0.94922 0.625 1.6562 0 0.71094-0.21094 1.2656-0.625 1.6719-0.41797 0.39844-1 0.59375-1.75 0.59375-0.74219 0-1.3242-0.19531-1.75-0.59375-0.41797-0.40625-0.625-0.96094-0.625-1.6719 0-0.70703 0.20703-1.2578 0.625-1.6562 0.42578-0.40625 1.0078-0.60938 1.75-0.60938z"/>
  </symbol>
  <symbol id="q" overflow="visible">
   <path d="m4.6719-3.6094c0.17578-0.25781 0.38281-0.45703 0.625-0.59375 0.23828-0.14453 0.50391-0.21875 0.79688-0.21875 0.48828 0 0.86328 0.15234 1.125 0.45312 0.25781 0.30469 0.39062 0.74609 0.39062 1.3281v2.6406h-1.3906v-2.25c0.007812-0.039062 0.015625-0.078125 0.015625-0.10938v-0.15625c0-0.30078-0.046875-0.51953-0.14062-0.65625-0.09375-0.14453-0.24219-0.21875-0.4375-0.21875-0.26172 0-0.46484 0.10938-0.60938 0.32812-0.13672 0.21875-0.21094 0.53125-0.21875 0.9375v2.125h-1.3906v-2.25c0-0.47656-0.042969-0.78516-0.125-0.92188-0.085938-0.14453-0.23047-0.21875-0.4375-0.21875-0.26172 0-0.46484 0.10938-0.60938 0.32812-0.14844 0.21875-0.21875 0.53125-0.21875 0.9375v2.125h-1.3906v-4.3281h1.3906v0.64062c0.16406-0.25 0.35938-0.42969 0.57812-0.54688 0.22656-0.125 0.47266-0.1875 0.73438-0.1875 0.30078 0 0.56641 0.074219 0.79688 0.21875 0.22656 0.13672 0.39844 0.33594 0.51562 0.59375z"/>
  </symbol>
  <symbol id="p" overflow="visible">
   <path d="m5.0156-2.6406v2.6406h-1.3906v-2c0-0.38281-0.011719-0.64453-0.03125-0.78125-0.011719-0.14453-0.039062-0.25-0.078125-0.3125-0.0625-0.09375-0.14062-0.16406-0.23438-0.21875-0.085938-0.050781-0.1875-0.078125-0.3125-0.078125-0.28125 0-0.50781 0.11719-0.67188 0.34375-0.16797 0.21875-0.25 0.52734-0.25 0.92188v2.125h-1.3906v-6h1.3906v2.3125c0.20703-0.25 0.42578-0.42969 0.65625-0.54688 0.23828-0.125 0.5-0.1875 0.78125-0.1875 0.5 0 0.87891 0.15234 1.1406 0.45312 0.25781 0.30469 0.39062 0.74609 0.39062 1.3281z"/>
  </symbol>
  <symbol id="o" overflow="visible">
   <path d="m0.71875-5.7656h1.6719l2.0938 3.9531v-3.9531h1.4062v5.7656h-1.6562l-2.0938-3.9531v3.9531h-1.4219z"/>
  </symbol>
  <symbol id="n" overflow="visible">
   <path d="m0.71875-5.7656h2.4688c0.73828 0 1.3008 0.16797 1.6875 0.5 0.39453 0.32422 0.59375 0.78125 0.59375 1.375 0 0.61719-0.19922 1.0859-0.59375 1.4062-0.38672 0.32422-0.94922 0.48438-1.6875 0.48438h-0.96875v2h-1.5zm1.5 1.0781v1.6094h0.8125c0.28906 0 0.51562-0.066406 0.67188-0.20312 0.15625-0.14453 0.23438-0.34766 0.23438-0.60938 0-0.25-0.078125-0.44141-0.23438-0.57812-0.15625-0.14453-0.38281-0.21875-0.67188-0.21875z"/>
  </symbol>
  <symbol id="m" overflow="visible">
   <path d="m0.65625-4.3281h1.3906v4.25c0 0.58203-0.14062 1.0234-0.42188 1.3281-0.27344 0.30078-0.67188 0.45312-1.2031 0.45312h-0.6875v-0.90625h0.25c0.25781 0 0.4375-0.0625 0.53125-0.1875 0.09375-0.11719 0.14062-0.34375 0.14062-0.6875zm0-1.6719h1.3906v1.125h-1.3906z"/>
  </symbol>
  <symbol id="l" overflow="visible">
   <path d="m4.1562-4.1875v1.125c-0.1875-0.125-0.375-0.21875-0.5625-0.28125s-0.38672-0.09375-0.59375-0.09375c-0.38672 0-0.6875 0.11719-0.90625 0.34375-0.21094 0.21875-0.3125 0.53125-0.3125 0.9375s0.10156 0.72656 0.3125 0.95312c0.21875 0.21875 0.51953 0.32812 0.90625 0.32812 0.21875 0 0.42188-0.03125 0.60938-0.09375 0.19531-0.0625 0.37891-0.16016 0.54688-0.29688v1.1406c-0.21875 0.085938-0.4375 0.14062-0.65625 0.17188-0.21875 0.039062-0.44531 0.0625-0.67188 0.0625-0.78125 0-1.3906-0.19531-1.8281-0.59375-0.4375-0.40625-0.65625-0.96094-0.65625-1.6719 0-0.71875 0.21875-1.2734 0.65625-1.6719 0.4375-0.39453 1.0469-0.59375 1.8281-0.59375 0.22656 0 0.45312 0.023437 0.67188 0.0625 0.21875 0.03125 0.4375 0.089844 0.65625 0.17188z"/>
  </symbol>
 </defs>
 <g>
  <path d="m350 0c155.03 0 280 124.97 280 280s-124.97 280-280 280-280-124.97-280-280 124.97-280 280-280zm0 107.57c50.621 0 91.75 41.129 91.75 91.75 0 50.621-41.129 90.168-91.75 90.168s-91.75-39.547-91.75-90.168c0-50.621 41.129-91.75 91.75-91.75zm-180.34 330.62c41.129-64.859 107.57-107.57 180.34-107.57 74.352 0 139.21 42.711 181.92 107.57-45.875 52.203-112.32 82.262-181.92 82.262s-136.05-30.055-180.34-82.262z" fill-rule="evenodd"/>
  <use x="70" y="583.730469" xlink:href="#t"/>
  <use x="75.804688" y="583.730469" xlink:href="#b"/>
  <use x="79.707031" y="583.730469" xlink:href="#a"/>
  <use x="85.070312" y="583.730469" xlink:href="#k"/>
  <use x="90.40625" y="583.730469" xlink:href="#c"/>
  <use x="94.1875" y="583.730469" xlink:href="#a"/>
  <use x="99.554688" y="583.730469" xlink:href="#g"/>
  <use x="107.96875" y="583.730469" xlink:href="#j"/>
  <use x="113.628906" y="583.730469" xlink:href="#i"/>
  <use x="121.539062" y="583.730469" xlink:href="#f"/>
  <use x="127.660156" y="583.730469" xlink:href="#s"/>
  <use x="133.324219" y="583.730469" xlink:href="#h"/>
  <use x="138.953125" y="583.730469" xlink:href="#a"/>
  <use x="144.320312" y="583.730469" xlink:href="#e"/>
  <use x="149.949219" y="583.730469" xlink:href="#a"/>
  <use x="158.066406" y="583.730469" xlink:href="#f"/>
  <use x="164.1875" y="583.730469" xlink:href="#b"/>
  <use x="168.089844" y="583.730469" xlink:href="#g"/>
  <use x="173.75" y="583.730469" xlink:href="#a"/>
  <use x="179.117188" y="583.730469" xlink:href="#a"/>
  <use x="184.480469" y="583.730469" xlink:href="#e"/>
  <use x="70" y="591.636719" xlink:href="#r"/>
  <use x="73.441406" y="591.636719" xlink:href="#b"/>
  <use x="77.34375" y="591.636719" xlink:href="#d"/>
  <use x="82.777344" y="591.636719" xlink:href="#q"/>
  <use x="93.769531" y="591.636719" xlink:href="#c"/>
  <use x="97.550781" y="591.636719" xlink:href="#p"/>
  <use x="103.183594" y="591.636719" xlink:href="#a"/>
  <use x="111.300781" y="591.636719" xlink:href="#o"/>
  <use x="117.921875" y="591.636719" xlink:href="#d"/>
  <use x="123.355469" y="591.636719" xlink:href="#h"/>
  <use x="128.984375" y="591.636719" xlink:href="#e"/>
  <use x="137.371094" y="591.636719" xlink:href="#n"/>
  <use x="143.167969" y="591.636719" xlink:href="#b"/>
  <use x="147.070312" y="591.636719" xlink:href="#d"/>
  <use x="152.503906" y="591.636719" xlink:href="#m"/>
  <use x="155.214844" y="591.636719" xlink:href="#a"/>
  <use x="160.578125" y="591.636719" xlink:href="#l"/>
  <use x="165.265625" y="591.636719" xlink:href="#c"/>
 </g>
</svg>
